# Exported from Wings 3D 1.5.3
mtllib box.mtl
o Cube1
#16 vertices, 28 faces
v -1.00000000 -0.23400000 -1.00000000
v -1.00000000 -0.23400000 1.00000000
v -1.00000000 0.23400000 -1.00000000
v -1.00000000 0.23400000 1.00000000
v 1.00000000 -0.23400000 -1.00000000
v 1.00000000 -0.23400000 1.00000000
v 1.00000000 0.23400000 -1.00000000
v 1.00000000 0.23400000 1.00000000
v -0.74676890 1.9231104e-2 -0.74676890
v -0.74676890 1.9231104e-2 0.74676890
v -0.74676890 0.23400000 -0.74676890
v -0.74676890 0.23400000 0.74676890
v 0.74676890 1.9231104e-2 -0.74676890
v 0.74676890 1.9231104e-2 0.74676890
v 0.74676890 0.23400000 -0.74676890
v 0.74676890 0.23400000 0.74676890
vt 0.29187079 0.32047676
vt 0.31864269 0.31159655
vt 0.33973854 0.26955964
vt 0.35362519 0.50665289
vt 0.38039709 0.49777268
vt 0.39046563 0.19039609
vt 0.39807682 0.25020890
vt 0.41521868 0.12646492
vt 0.41871152 0.15391349
vt 0.42243400 0.51886854
vt 0.43135208 0.78895467
vt 0.44925625 0.48366507
vt 0.45045965 0.58521381
vt 0.45320729 0.55591612
vt 0.60610052 0.10217517
vt 0.60959335 0.12962374
vt 0.63509294 0.80806224
vt 0.64607595 0.15786963
vt 0.65368714 0.21768244
vt 0.65397904 0.57195557
vt 0.65420051 0.60432138
vt 0.68621360 0.47329276
vt 0.68729903 0.53797569
vt 0.71349996 0.21007125
vt 0.74602641 0.46568157
vt 0.74998255 0.23831714
vt 0.77427230 0.42919897
vt 0.77743113 0.23482430
vt 0.80172087 0.42570614
vn -0.57735027 -0.57735027 -0.57735027
vn -0.57735027 -0.57735027 0.57735027
vn -0.23570226 0.94280904 -0.23570226
vn -0.57735027 0.57735027 0.57735027
vn 0.57735027 -0.57735027 -0.57735027
vn 0.57735027 -0.57735027 0.57735027
vn 0.57735027 0.57735027 -0.57735027
vn 0.23570226 0.94280904 0.23570226
vn 0.57735027 0.57735027 0.57735027
vn 0.57735027 0.57735027 -0.57735027
vn 0.57735027 0.57735027 0.57735027
vn 0.23570226 0.94280904 -0.23570226
vn -0.57735027 0.57735027 0.57735027
vn -0.57735027 0.57735027 -0.57735027
vn -0.23570226 0.94280904 0.23570226
vn -0.57735027 0.57735027 -0.57735027
g Cube1_Cube1_auv
usemtl Cube1_auv
s 1
f 1/12/1 4/23/4 3/10/3
f 1/12/1 6/19/6 2/22/2
f 1/12/1 7/3/7 5/7/5
f 2/22/2 4/23/4 1/12/1
f 2/22/2 6/19/6 4/25/4
f 3/10/3 7/3/7 1/12/1
f 3/10/3 15/2/15 7/3/7
f 4/25/4 6/19/6 8/24/8
f 4/23/4 12/20/12 3/10/3
f 5/7/5 6/19/6 1/12/1
f 5/7/5 7/6/7 6/19/6
f 6/19/6 7/6/7 8/18/8
f 7/6/7 15/9/15 8/18/8
f 8/24/8 12/27/12 4/25/4
f 9/13/9 11/14/11 10/21/10
f 9/4/9 13/1/13 11/5/11
f 10/21/10 11/14/11 12/20/12
f 10/21/10 13/11/13 9/13/9
f 10/29/10 16/26/16 14/28/14
f 11/14/11 3/10/3 12/20/12
f 11/5/11 13/1/13 15/2/15
f 12/27/12 8/24/8 16/26/16
f 12/27/12 16/26/16 10/29/10
f 13/8/13 16/16/16 15/9/15
f 14/17/14 13/11/13 10/21/10
f 14/15/14 16/16/16 13/8/13
f 15/2/15 3/10/3 11/5/11
f 16/16/16 8/18/8 15/9/15
