# Exported from Wings 3D 1.5.3
mtllib invader.mtl
o Cylinder2
#113 vertices, 222 faces
v 0.54000000 0.13772641 9.0656086e-18
v 0.49889495 0.13772641 0.20664905
v 0.38183766 0.13772641 0.38183766
v 0.20664905 0.13772641 0.49889495
v 1.6675923e-17 0.13772641 0.54000000
v -0.20664905 0.13772641 0.49889495
v -0.38183766 0.13772641 0.38183766
v -0.49889495 0.13772641 0.20664905
v -0.54000000 0.13772641 7.5196536e-17
v -0.49889495 0.13772641 -0.20664905
v -0.38183766 0.13772641 -0.38183766
v -0.20664905 0.13772641 -0.49889495
v -1.1558593e-16 0.13772641 -0.54000000
v 0.20664905 0.13772641 -0.49889495
v 0.38183766 0.13772641 -0.38183766
v 0.49889495 0.13772641 -0.20664905
v 0.54000000 2.8286411e-2 5.7830222e-18
v 0.49889495 2.8286411e-2 0.20664905
v 0.38183766 2.8286411e-2 0.38183766
v 0.20664905 2.8286411e-2 0.49889495
v 1.6675923e-17 2.8286411e-2 0.54000000
v -0.20664905 2.8286411e-2 0.49889495
v -0.38183766 2.8286411e-2 0.38183766
v -0.49889495 2.8286411e-2 0.20664905
v -0.54000000 2.8286411e-2 7.1913949e-17
v -0.49889495 2.8286411e-2 -0.20664905
v -0.38183766 2.8286411e-2 -0.38183766
v -0.20664905 2.8286411e-2 -0.49889495
v -1.1558593e-16 2.8286411e-2 -0.54000000
v 0.20664905 2.8286411e-2 -0.49889495
v 0.38183766 2.8286411e-2 -0.38183766
v 0.49889495 2.8286411e-2 -0.20664905
v 0.44562536 0.19454575 0.18458407
v 0.48234141 0.19454575 1.8910760e-17
v 0.44562536 0.19454575 -0.18458407
v 0.34106688 0.19454575 -0.34106688
v 0.18458407 0.19454575 -0.44562536
v -1.0661158e-16 0.19454575 -0.48234141
v -0.18458407 0.19454575 -0.44562536
v -0.34106688 0.19454575 -0.34106688
v -0.44562536 0.19454575 -0.18458407
v -0.48234141 0.19454575 6.8724688e-17
v -0.44562536 0.19454575 0.18458407
v -0.34106688 0.19454575 0.34106688
v -0.18458407 0.19454575 0.44562536
v 1.6675923e-17 0.19454575 0.48234141
v 0.18458407 0.19454575 0.44562536
v 0.34106688 0.19454575 0.34106688
v 0.48234141 -2.8532931e-2 1.4631722e-17
v 0.44562536 -2.8532931e-2 0.18458407
v 0.34106688 -2.8532931e-2 0.34106688
v 0.18458407 -2.8532931e-2 0.44562536
v 1.6675923e-17 -2.8532931e-2 0.48234141
v -0.18458407 -2.8532931e-2 0.44562536
v -0.34106688 -2.8532931e-2 0.34106688
v -0.44562536 -2.8532931e-2 0.18458407
v -0.48234141 -2.8532931e-2 6.6077350e-17
v -0.44562536 -2.8532931e-2 -0.18458407
v -0.34106688 -2.8532931e-2 -0.34106688
v -0.18458407 -2.8532931e-2 -0.44562536
v -1.0661158e-16 -2.8532931e-2 -0.48234141
v 0.18458407 -2.8532931e-2 -0.44562536
v 0.34106688 -2.8532931e-2 -0.34106688
v 0.44562536 -2.8532931e-2 -0.18458407
v 0.33015639 3.8064109e-3 2.3237962e-16
v 0.30502473 3.8064109e-3 0.12634538
v 0.23345582 3.8064109e-3 0.23345582
v 0.12634538 3.8064109e-3 0.30502473
v 1.2164018e-16 3.8064109e-3 0.33015639
v -0.12634538 3.8064109e-3 0.30502473
v -0.23345582 3.8064109e-3 0.23345582
v -0.30502473 3.8064109e-3 0.12634538
v -0.33015639 3.8064109e-3 7.3559485e-17
v -0.30502473 3.8064109e-3 -0.12634538
v -0.23345582 3.8064109e-3 -0.23345582
v -0.12634538 3.8064109e-3 -0.30502473
v -5.2530781e-17 3.8064109e-3 -0.33015639
v 0.12634538 3.8064109e-3 -0.30502473
v 0.23345582 3.8064109e-3 -0.23345582
v 0.30502473 3.8064109e-3 -0.12634538
v 0.21091180 0.25820641 8.7362526e-2
v 0.22828928 0.25820641 1.2285154e-16
v 0.21091180 0.25820641 -8.7362526e-2
v 0.16142490 0.25820641 -0.16142490
v 8.7362526e-2 0.25820641 -0.21091180
v -4.8405564e-17 0.25820641 -0.22828928
v -8.7362526e-2 0.25820641 -0.21091180
v -0.16142490 0.25820641 -0.16142490
v -0.21091180 0.25820641 -8.7362526e-2
v -0.22828928 0.25820641 7.7280535e-18
v -0.21091180 0.25820641 8.7362526e-2
v -0.16142490 0.25820641 0.16142490
v -8.7362526e-2 0.25820641 0.21091180
v 7.2026347e-17 0.25820641 0.22828928
v 8.7362526e-2 0.25820641 0.21091180
v 0.16142490 0.25820641 0.16142490
v 0.11413210 0.36094719 4.7275064e-2
v 0.12353570 0.36094719 1.5806642e-16
v 0.11413210 0.36094719 -4.7275064e-2
v 8.7352929e-2 0.36094719 -8.7352929e-2
v 4.7275064e-2 0.36094719 -0.11413210
v -2.4564760e-18 0.36094719 -0.12353570
v -4.7275064e-2 0.36094719 -0.11413210
v -8.7352929e-2 0.36094719 -8.7352929e-2
v -0.11413210 0.36094719 -4.7275064e-2
v -0.12353570 0.36094719 -3.4132953e-17
v -0.11413210 0.36094719 4.7275064e-2
v -8.7352929e-2 0.36094719 8.7352929e-2
v -4.7275064e-2 0.36094719 0.11413210
v 7.0544118e-17 0.36094719 0.12353570
v 4.7275064e-2 0.36094719 0.11413210
v 8.7352929e-2 0.36094719 8.7352929e-2
v 4.1181896e-13 0.41084641 -3.4307586e-14
vt 1.3433333e-2 0.94861949
vt 3.7567778e-2 0.69660764
vt 4.5937630e-2 0.74849554
vt 4.7812267e-2 9.0578201e-2
vt 4.7812267e-2 6.0014933e-2
vt 4.9081035e-2 0.64532554
vt 5.5304555e-2 0.36373163
vt 5.8132646e-2 0.97626692
vt 6.1425187e-2 0.42225386
vt 6.2985050e-2 0.89481923
vt 6.5526681e-2 0.30578492
vt 7.2991641e-2 0.79355649
vt 7.7897509e-2 0.36452725
vt 7.8828169e-2 0.60199521
vt 8.3364609e-2 0.41680076
vt 8.4140965e-2 0.90790459
vt 8.7028166e-2 0.31276781
vt 9.1302043e-2 0.25288932
vt 0.10665369 9.0578201e-2
vt 0.10665369 6.0014933e-2
vt 0.10864467 0.91219034
vt 0.10990535 0.98532209
vt 0.11005136 0.26552015
vt 0.11067646 0.69883513
vt 0.11463786 0.72339336
vt 0.11612562 0.67456362
vt 0.12069547 0.49233218
vt 0.12254801 0.57282358
vt 0.12744236 0.74472043
vt 0.12983357 0.47165443
vt 0.13020476 0.65405564
vt 0.13063984 0.20913032
vt 0.13298611 0.90706257
vt 0.14518886 0.22643352
vt 0.15089709 0.64024888
vt 0.15367844 0.89325582
vt 0.15644084 0.80259102
vt 0.16133519 0.97448787
vt 0.16549512 9.0578201e-2
vt 0.16549512 6.0014933e-2
vt 0.16775758 0.87274784
vt 0.16924534 0.82391810
vt 0.17320674 0.84847633
vt 0.17397785 0.56198937
vt 0.17523853 0.63512111
vt 0.17729847 0.50840741
vt 0.18039278 0.48601322
vt 0.18050177 0.17788769
vt 0.18972677 0.19852682
vt 0.19974224 0.63940687
vt 0.20505503 0.94531624
vt 0.21089156 0.75375497
vt 0.22089815 0.65249223
vt 0.22433654 9.0578201e-2
vt 0.22433654 6.0014933e-2
vt 0.22575055 0.57104453
vt 0.23295129 0.48590268
vt 0.23480217 0.90198592
vt 0.23613977 0.50828366
vt 0.23703665 0.16157451
vt 0.23794557 0.79881592
vt 0.24022513 0.18395549
vt 0.24631542 0.85070382
vt 0.27044987 0.59869196
vt 0.28317797 9.0578201e-2
vt 0.28317797 6.0014933e-2
vt 0.28344965 0.47133134
vt 0.29267466 0.49197048
vt 0.29278364 0.18384495
vt 0.29587795 0.16145076
vt 0.31655307 0.83263556
vt 0.32543804 0.78083338
vt 0.32772263 0.88399361
vt 0.32798756 0.44342465
vt 0.34201939 9.0578201e-2
vt 0.34201939 6.0014933e-2
vt 0.34253658 0.46072785
vt 0.34334285 0.19820374
vt 0.35248096 0.17752598
vt 0.35308333 0.73613274
vt 0.35731974 0.92742655
vt 0.35999206 0.83167356
vt 0.36312506 0.40433802
vt 0.36607371 0.79621564
vt 0.36763748 0.86682747
vt 0.36860789 0.55770211
vt 0.37562640 0.52241768
vt 0.37562640 0.59298654
vt 0.38187438 0.41696884
vt 0.38499655 0.76561864
vt 0.38614826 0.35709036
vt 0.38789632 0.89655675
vt 0.38981181 0.25305741
vt 0.39527891 0.30533092
vt 0.39561342 0.49250499
vt 0.39561342 0.62289923
vt 0.40086082 9.0578201e-2
vt 0.40086082 6.0014933e-2
vt 0.40103317 0.95660779
vt 0.40764974 0.36407325
vt 0.41175124 0.24760431
vt 0.41781759 0.91653093
vt 0.41787187 0.30612653
vt 0.42552611 0.47251797
vt 0.42552611 0.64288625
vt 0.43178558 0.78523849
vt 0.45249548 0.96728669
vt 0.45304287 0.92384049
vt 0.45970224 9.0578201e-2
vt 0.45970224 6.0014933e-2
vt 0.46081054 0.46549946
vt 0.46081054 0.64990476
vt 0.46157471 0.81686885
vt 0.46181547 0.16179740
vt 0.46181547 0.19236067
vt 0.47622033 0.75716785
vt 0.48844113 0.91742072
vt 0.49198972 0.79765486
vt 0.49609497 0.47251797
vt 0.49609497 0.64288625
vt 0.50421051 0.95790774
vt 0.51854367 9.0578201e-2
vt 0.51854367 6.0014933e-2
vt 0.51885614 0.89820673
vt 0.52065689 0.19236067
vt 0.52065689 0.16179740
vt 0.52600766 0.49250499
vt 0.52600766 0.62289923
vt 0.52738798 0.79123509
vt 0.52793536 0.74778889
vt 0.54599468 0.52241768
vt 0.54599468 0.59298654
vt 0.54864527 0.92983709
vt 0.55301319 0.55770211
vt 0.56261326 0.79854466
vt 0.56813087 0.37246240
vt 0.57425150 0.31394017
vt 0.57835299 0.43040911
vt 0.57939768 0.75846779
vt 0.57949832 0.19236067
vt 0.57949832 0.16179740
vt 0.59072382 0.37166678
vt 0.59253453 0.81851883
vt 0.59543430 0.94945694
vt 0.59619092 0.31939327
vt 0.59985448 0.42342622
vt 0.60412835 0.48330471
vt 0.61279336 0.84824811
vt 0.61435714 0.91885994
vt 0.62043878 0.88340203
vt 0.62287767 0.47067388
vt 0.62311111 0.78764903
vt 0.62734752 0.97894284
vt 0.63833974 0.19236067
vt 0.63833974 0.16179740
vt 0.64346615 0.52706371
vt 0.65162240 0.25769030
vt 0.65270821 0.83108197
vt 0.65499281 0.93424220
vt 0.65801517 0.50976051
vt 0.66076050 0.27836805
vt 0.66387778 0.88244002
vt 0.68333533 0.73827366
vt 0.68599641 0.76300660
vt 0.68760002 0.71376628
vt 0.69332808 0.55830634
vt 0.69718117 0.19236067
vt 0.69718117 0.16179740
vt 0.69845955 0.69138615
vt 0.70255308 0.53766721
vt 0.70822541 0.24161507
vt 0.71131972 0.26400926
vt 0.71507124 0.67286991
vt 0.72429018 0.73960744
vt 0.72573018 0.75299134
vt 0.72659796 0.72634560
vt 0.73247444 0.71423489
vt 0.73614608 0.65965437
vt 0.74146364 0.70421508
vt 0.74986297 0.57461952
vt 0.75286800 0.69706366
vt 0.75305145 0.55223854
vt 0.75602259 0.19236067
vt 0.75602259 0.16179740
vt 0.75954307 0.92293956
vt 0.76004872 0.65276501
vt 0.76022387 0.93638347
vt 0.76369035 0.91013322
vt 0.76387822 0.26411980
vt 0.76564364 0.94870534
vt 0.76580260 0.69333558
vt 0.76706670 0.24173882
vt 0.77212289 0.89964062
vt 0.77926373 0.69332011
vt 0.78373699 0.89283511
vt 0.78492438 0.65273643
vt 0.79220686 0.69701847
vt 0.79643072 0.92781077
vt 0.79701252 0.89060742
vt 0.80560995 0.55234908
vt 0.80870426 0.57474327
vt 0.80884279 0.65957085
vt 0.81021190 0.89324913
vt 0.81437659 0.27869114
vt 0.81486402 0.16179740
vt 0.81486402 0.19236067
vt 0.81889587 0.72688335
vt 0.82160752 0.90041448
vt 0.82360159 0.25805200
vt 0.83553180 0.68943573
vt 0.84281427 0.73371777
vt 0.84847492 0.69313409
vt 0.85616916 0.53799029
vt 0.85891450 0.30659783
vt 0.86193605 0.69311862
vt 0.86530727 0.55866805
vt 0.86768994 0.73368919
vt 0.87346351 0.28929463
vt 0.87370544 0.19236067
vt 0.87370544 0.16179740
vt 0.87487065 0.68939054
vt 0.88627502 0.68223912
vt 0.89065196 0.93774068
vt 0.89159258 0.72679983
vt 0.89405200 0.34568446
vt 0.89526421 0.67221931
vt 0.90114070 0.66010860
vt 0.90200847 0.63346286
vt 0.90224860 0.94457590
vt 0.90344848 0.64684676
vt 0.91266741 0.71358429
vt 0.91280131 0.33305364
vt 0.91503182 0.90963285
vt 0.91551839 0.94683756
vt 0.91707519 0.39293212
vt 0.92073875 0.49696507
vt 0.92620585 0.44469156
vt 0.92872449 0.94422964
vt 0.92927911 0.69506805
vt 0.93254687 0.19236067
vt 0.93254687 0.16179740
vt 0.93857668 0.38594923
vt 0.94013841 0.93709349
vt 0.94013863 0.67268792
vt 0.94174224 0.62344760
vt 0.94267817 0.50241817
vt 0.94440332 0.64818054
vt 0.94520632 0.88786297
vt 0.94826623 0.92636311
vt 0.94879880 0.44389594
vt 0.95097763 0.90002416
vt 0.95204413 0.91344298
vn 0.92168111 0.38794836 -1.6408890e-16
vn 0.85152231 0.38794836 0.35271209
vn 0.65172696 0.38794836 0.65172696
vn 0.35271209 0.38794836 0.85152231
vn 2.2896125e-17 0.38794836 0.92168111
vn -0.35271209 0.38794836 0.85152231
vn -0.65172696 0.38794836 0.65172696
vn -0.85152231 0.38794836 0.35271209
vn -0.92168111 0.38794836 1.3737675e-16
vn -0.85152231 0.38794836 -0.35271209
vn -0.65172696 0.38794836 -0.65172696
vn -0.35271209 0.38794836 -0.85152231
vn -1.8316900e-16 0.38794836 -0.92168111
vn 0.35271209 0.38794836 -0.85152231
vn 0.65172696 0.38794836 -0.65172696
vn 0.85152231 0.38794836 -0.35271209
vn 0.92168111 -0.38794836 -2.0606513e-16
vn 0.85152231 -0.38794836 0.35271209
vn 0.65172696 -0.38794836 0.65172696
vn 0.35271209 -0.38794836 0.85152231
vn 2.2896125e-17 -0.38794836 0.92168111
vn -0.35271209 -0.38794836 0.85152231
vn -0.65172696 -0.38794836 0.65172696
vn -0.85152231 -0.38794836 0.35271209
vn -0.92168111 -0.38794836 1.9080104e-16
vn -0.85152231 -0.38794836 -0.35271209
vn -0.65172696 -0.38794836 -0.65172696
vn -0.35271209 -0.38794836 -0.85152231
vn -4.2739434e-16 -0.38794836 -0.92168111
vn 0.35271209 -0.38794836 -0.85152231
vn 0.65172696 -0.38794836 -0.65172696
vn 0.85152231 -0.38794836 -0.35271209
vn 0.45153227 0.87243229 0.18703079
vn 0.48873501 0.87243229 -1.6089660e-16
vn 0.45153227 0.87243229 -0.18703079
vn 0.34558784 0.87243229 -0.34558784
vn 0.18703079 0.87243229 -0.45153227
vn -1.3558702e-16 0.87243229 -0.48873501
vn -0.18703079 0.87243229 -0.45153227
vn -0.34558784 0.87243229 -0.34558784
vn -0.45153227 0.87243229 -0.18703079
vn -0.48873501 0.87243229 6.3273942e-17
vn -0.45153227 0.87243229 0.18703079
vn -0.34558784 0.87243229 0.34558784
vn -0.18703079 0.87243229 0.45153227
vn -1.4462615e-17 0.87243229 0.48873501
vn 0.18703079 0.87243229 0.45153227
vn 0.34558784 0.87243229 0.34558784
vn 0.27825146 -0.96050826 -5.5449676e-17
vn 0.25707083 -0.96050826 0.10648222
vn 0.19675350 -0.96050826 0.19675350
vn 0.10648222 -0.96050826 0.25707083
vn 3.9606911e-18 -0.96050826 0.27825146
vn -0.10648222 -0.96050826 0.25707083
vn -0.19675350 -0.96050826 0.19675350
vn -0.25707083 -0.96050826 0.10648222
vn -0.27825146 -0.96050826 5.5449676e-17
vn -0.25707083 -0.96050826 -0.10648222
vn -0.19675350 -0.96050826 -0.19675350
vn -0.10648222 -0.96050826 -0.25707083
vn -7.1292440e-17 -0.96050826 -0.27825146
vn 0.10648222 -0.96050826 -0.25707083
vn 0.19675350 -0.96050826 -0.19675350
vn 0.25707083 -0.96050826 -0.10648222
vn -0.13921066 -0.99026279 8.4072889e-18
vn -0.11028659 -0.99284944 -4.5682202e-2
vn -5.9071663e-2 -0.99650443 -5.9071663e-2
vn -4.5682202e-2 -0.99284944 -0.11028659
vn 0.0000000e+0 -0.99650443 -8.3539947e-2
vn 4.5682202e-2 -0.99284944 -0.11028659
vn 5.9071663e-2 -0.99650443 -5.9071663e-2
vn 0.12861388 -0.99026279 -5.3273614e-2
vn 0.13921066 -0.99026279 -1.3953600e-17
vn 0.11028659 -0.99284944 4.5682202e-2
vn 5.9071663e-2 -0.99650443 5.9071663e-2
vn 4.5682202e-2 -0.99284944 0.11028659
vn 9.7691043e-18 -0.99650443 8.3539947e-2
vn -4.5682202e-2 -0.99284944 0.11028659
vn -5.9071663e-2 -0.99650443 5.9071663e-2
vn -0.12861388 -0.99026279 5.3273614e-2
vn 0.45058647 0.87300498 0.18663903
vn 0.48771128 0.87300498 -2.4216519e-16
vn 0.45058647 0.87300498 -0.18663903
vn 0.34486396 0.87300498 -0.34486396
vn 0.18663903 0.87300498 -0.45058647
vn -2.0240672e-16 0.87300498 -0.48771128
vn -0.18663903 0.87300498 -0.45058647
vn -0.34486396 0.87300498 -0.34486396
vn -0.45058647 0.87300498 -0.18663903
vn -0.48771128 0.87300498 2.1686435e-16
vn -0.45058647 0.87300498 0.18663903
vn -0.34486396 0.87300498 0.34486396
vn -0.18663903 0.87300498 0.45058647
vn 7.2288116e-18 0.87300498 0.48771128
vn 0.18663903 0.87300498 0.45058647
vn 0.34486396 0.87300498 0.34486396
vn 0.55561563 0.79895258 0.23014353
vn 0.54728199 0.83694828 -1.1922771e-15
vn 0.55561563 0.79895258 -0.23014353
vn 0.38698681 0.83694828 -0.38698681
vn 0.23014353 0.79895258 -0.55561563
vn 2.1201178e-14 0.83694828 -0.54728199
vn -0.23014353 0.79895258 -0.55561563
vn -0.38698681 0.83694828 -0.38698681
vn -0.55561563 0.79895258 -0.23014353
vn -0.54728199 0.83694828 -1.6158024e-15
vn -0.55561563 0.79895258 0.23014353
vn -0.38698681 0.83694828 0.38698681
vn -0.23014353 0.79895258 0.55561563
vn 2.1596231e-14 0.83694828 0.54728199
vn 0.23014353 0.79895258 0.55561563
vn 0.38698681 0.83694828 0.38698681
vn 5.9832462e-13 1.00000000 -5.0046273e-14
g Cylinder2_Cylinder2_auv
usemtl Cylinder2_auv
s 1
f 1/140/1 18/126/18 17/141/17
f 1/100/1 33/94/33 2/103/2
f 1/100/1 35/83/35 34/91/34
f 2/125/2 3/115/3 18/126/18
f 2/103/2 33/94/33 3/101/3
f 3/122/3 20/110/20 19/123/19
f 3/101/3 33/94/33 48/93/48
f 3/79/3 47/69/47 4/70/4
f 4/109/4 5/97/5 20/110/20
f 4/70/4 47/69/47 5/60/5
f 5/97/5 22/76/22 21/98/21
f 5/60/5 45/49/45 6/48/6
f 5/60/5 47/69/47 46/62/46
f 6/75/6 7/65/7 22/76/22
f 6/48/6 45/49/45 7/32/7
f 7/65/7 24/55/24 23/66/23
f 7/32/7 43/23/43 8/18/8
f 7/32/7 45/49/45 44/34/44
f 8/54/8 9/39/9 24/55/24
f 8/18/8 43/23/43 9/11/9
f 9/39/9 26/20/26 25/40/25
f 9/11/9 41/13/41 10/7/10
f 9/11/9 43/23/43 42/17/42
f 10/19/10 11/4/11 26/20/26
f 10/7/10 41/13/41 11/9/11
f 11/240/11 28/220/28 27/241/27
f 11/27/11 39/47/39 12/46/12
f 11/9/11 41/13/41 40/15/40
f 12/219/12 13/206/13 28/220/28
f 12/46/12 39/47/39 13/59/13
f 13/206/13 30/184/30 29/205/29
f 13/59/13 37/67/37 14/68/14
f 13/59/13 39/47/39 38/57/38
f 14/183/14 15/167/15 30/184/30
f 14/68/14 37/67/37 15/77/15
f 15/167/15 32/155/32 31/168/31
f 15/77/15 35/83/35 16/89/16
f 15/77/15 37/67/37 36/74/36
f 16/154/16 1/140/1 32/155/32
f 16/89/16 35/83/35 1/100/1
f 17/141/17 32/155/32 1/140/1
f 17/138/17 49/146/49 32/147/32
f 18/126/18 1/140/1 2/125/2
f 18/136/18 49/146/49 17/138/17
f 18/136/18 51/145/51 50/142/50
f 19/114/19 18/126/18 3/115/3
f 19/157/19 20/171/20 51/161/51
f 20/110/20 3/122/3 4/109/4
f 20/171/20 53/189/53 52/172/52
f 21/98/21 20/110/20 5/97/5
f 21/192/21 22/209/22 53/189/53
f 22/76/22 5/97/5 6/75/6
f 22/209/22 55/214/55 54/204/54
f 23/66/23 22/76/22 7/65/7
f 23/218/23 24/232/24 55/214/55
f 24/55/24 7/65/7 8/54/8
f 24/232/24 57/235/57 56/225/56
f 25/40/25 24/55/24 9/39/9
f 25/242/25 26/250/26 57/235/57
f 26/20/26 9/39/9 10/19/10
f 26/250/26 59/236/59 58/237/58
f 27/5/27 26/20/26 11/4/11
f 27/216/27 28/201/28 59/213/59
f 28/220/28 11/240/11 12/219/12
f 28/201/28 61/182/61 60/200/60
f 29/205/29 28/220/28 13/206/13
f 29/180/29 30/166/30 61/182/61
f 30/184/30 13/206/13 14/183/14
f 30/166/30 63/160/63 62/170/62
f 31/168/31 30/184/30 15/167/15
f 31/156/31 32/147/32 63/160/63
f 32/155/32 15/167/15 16/154/16
f 32/147/32 49/146/49 64/151/64
f 33/61/33 82/43/82 81/42/81
f 34/91/34 33/94/33 1/100/1
f 34/63/34 35/58/35 82/43/82
f 35/58/35 84/36/84 83/41/83
f 36/74/36 35/83/35 15/77/15
f 36/51/36 37/38/37 84/36/84
f 37/38/37 86/21/86 85/33/85
f 38/57/38 37/67/37 13/59/13
f 38/22/38 39/8/39 86/21/86
f 39/8/39 88/10/88 87/16/87
f 40/30/40 39/47/39 11/27/11
f 40/12/40 41/3/41 88/29/88
f 41/3/41 90/24/90 89/25/89
f 42/17/42 41/13/41 9/11/9
f 42/2/42 43/6/43 90/24/90
f 43/6/43 92/31/92 91/26/91
f 44/34/44 43/23/43 7/32/7
f 44/14/44 45/28/45 92/31/92
f 45/28/45 94/45/94 93/35/93
f 46/62/46 45/49/45 5/60/5
f 46/44/46 47/56/47 94/45/94
f 47/56/47 96/53/96 95/50/95
f 48/52/48 33/61/33 96/37/96
f 48/78/48 47/69/47 3/79/3
f 50/142/50 49/146/49 18/136/18
f 50/72/50 51/80/51 66/84/66
f 51/145/51 18/136/18 19/137/19
f 51/106/51 68/118/68 67/113/67
f 52/172/52 51/161/51 20/171/20
f 52/116/52 53/130/53 68/118/68
f 53/189/53 20/171/20 21/192/21
f 53/130/53 70/135/70 69/129/69
f 54/204/54 53/189/53 22/209/22
f 54/139/54 55/152/55 70/135/70
f 55/214/55 22/209/22 23/218/23
f 55/152/55 72/148/72 71/143/71
f 56/225/56 55/214/55 24/232/24
f 56/158/56 57/162/57 72/148/72
f 57/235/57 24/232/24 25/242/25
f 57/162/57 74/149/74 73/150/73
f 58/237/58 57/235/57 26/250/26
f 58/159/58 59/153/59 74/149/74
f 59/236/59 26/250/26 27/246/27
f 59/133/59 76/117/76 75/124/75
f 60/200/60 59/213/59 28/201/28
f 60/121/60 61/107/61 76/117/76
f 61/182/61 28/201/28 29/180/29
f 61/107/61 78/102/78 77/108/77
f 62/170/62 61/182/61 30/166/30
f 62/99/62 63/81/63 78/102/78
f 63/160/63 30/166/30 31/156/31
f 63/81/63 80/85/80 79/92/79
f 64/73/64 49/71/49 80/85/80
f 64/151/64 63/160/63 32/147/32
f 65/82/65 49/71/49 66/84/66
f 65/82/65 80/85/80 49/71/49
f 66/84/66 49/71/49 50/72/50
f 66/87/66 80/88/80 65/86/65
f 67/90/67 66/84/66 51/80/51
f 67/95/67 79/96/79 66/87/66
f 68/118/68 51/106/51 52/116/52
f 68/104/68 78/105/78 67/95/67
f 69/129/69 68/118/68 53/130/53
f 69/111/69 77/112/77 68/104/68
f 70/135/70 53/130/53 54/139/54
f 70/119/70 76/120/76 69/111/69
f 71/143/71 70/135/70 55/152/55
f 71/127/71 75/128/75 70/119/70
f 72/148/72 55/152/55 56/158/56
f 72/131/72 74/132/74 71/127/71
f 73/150/73 72/148/72 57/162/57
f 73/134/73 74/132/74 72/131/72
f 74/149/74 57/162/57 58/159/58
f 75/128/75 71/127/71 74/132/74
f 75/144/75 74/149/74 59/153/59
f 76/117/76 59/133/59 60/121/60
f 76/120/76 70/119/70 75/128/75
f 77/112/77 69/111/69 76/120/76
f 77/108/77 76/117/76 61/107/61
f 78/102/78 61/107/61 62/99/62
f 78/105/78 68/104/68 77/112/77
f 79/96/79 67/95/67 78/105/78
f 79/92/79 78/102/78 63/81/63
f 80/85/80 63/81/63 64/73/64
f 80/88/80 66/87/66 79/96/79
f 81/42/81 96/37/96 33/61/33
f 81/247/81 97/230/97 96/245/96
f 82/43/82 33/61/33 34/63/34
f 82/244/82 97/230/97 81/247/81
f 82/244/82 99/226/99 98/227/98
f 83/41/83 82/43/82 35/58/35
f 83/239/83 84/231/84 99/226/99
f 84/36/84 35/58/35 36/51/36
f 84/231/84 101/221/101 100/222/100
f 85/33/85 84/36/84 37/38/37
f 85/224/85 86/217/86 101/221/101
f 86/21/86 37/38/37 38/22/38
f 86/217/86 103/212/103 102/215/102
f 87/16/87 86/21/86 39/8/39
f 87/211/87 88/207/88 103/212/103
f 88/10/88 39/8/39 40/1/40
f 88/164/88 105/174/105 104/175/104
f 89/25/89 88/29/88 41/3/41
f 89/163/89 90/165/90 105/174/105
f 90/24/90 41/3/41 42/2/42
f 90/165/90 107/177/107 106/176/106
f 91/26/91 90/24/90 43/6/43
f 91/169/91 92/173/92 107/177/107
f 92/31/92 43/6/43 44/14/44
f 92/173/92 109/181/109 108/179/108
f 93/35/93 92/31/92 45/28/45
f 93/178/93 94/186/94 109/181/109
f 94/45/94 45/28/45 46/44/46
f 94/186/94 111/194/111 110/191/110
f 95/50/95 94/45/94 47/56/47
f 95/196/95 96/202/96 111/194/111
f 96/53/96 47/56/47 48/64/48
f 96/245/96 97/230/97 112/228/112
f 98/227/98 97/230/97 82/244/82
f 98/252/98 99/249/99 113/233/113
f 99/226/99 82/244/82 83/239/83
f 100/222/100 99/226/99 84/231/84
f 100/243/100 101/238/101 113/233/113
f 101/221/101 84/231/84 85/224/85
f 101/238/101 102/234/102 113/233/113
f 102/215/102 101/221/101 86/217/86
f 102/234/102 103/229/103 113/233/113
f 103/212/103 86/217/86 87/211/87
f 104/210/104 103/212/103 88/207/88
f 104/190/104 105/187/105 113/198/113
f 105/174/105 88/164/88 89/163/89
f 105/187/105 106/185/106 113/198/113
f 106/176/106 105/174/105 90/165/90
f 107/177/107 90/165/90 91/169/91
f 107/188/107 113/198/113 106/185/106
f 108/179/108 107/177/107 92/173/92
f 108/193/108 109/195/109 113/198/113
f 109/181/109 92/173/92 93/178/93
f 109/195/109 110/199/110 113/198/113
f 110/191/110 109/181/109 94/186/94
f 110/199/110 111/203/111 113/198/113
f 111/194/111 94/186/94 95/196/95
f 112/248/112 97/251/97 113/233/113
f 112/197/112 111/194/111 96/202/96
f 113/233/113 97/251/97 98/252/98
f 113/233/113 99/249/99 100/243/100
f 113/233/113 103/229/103 104/223/104
f 113/198/113 107/188/107 108/193/108
f 113/198/113 111/203/111 112/208/112
