# Exported from Wings 3D 1.5.3
mtllib airc.mtl
o Cube1
#39 vertices, 70 faces
v -0.24402524 -3.2030685e-2 9.7866672e-2
v 0.13725591 -3.2030685e-2 9.7866672e-2
v -0.24402524 0.11051838 9.7866672e-2
v 0.13725591 0.11051838 9.7866672e-2
v -0.24402524 -3.2030685e-2 -0.41598933
v 0.13725591 -3.2030685e-2 -0.41598933
v -0.24402524 6.4544501e-2 -0.41598933
v 0.13725591 6.4544501e-2 -0.41598933
v -1.6563890e-2 6.5377109e-2 -0.83725713
v -9.0205447e-2 6.5377109e-2 -0.83725713
v -0.10287496 0.14000674 -0.63453166
v -3.8943750e-3 0.14000674 -0.63453166
v -0.12438731 0.20225420 0.39337537
v 3.1937960e-2 0.20225420 0.39337537
v 3.1937960e-2 0.21376196 0.31817183
v -0.12438731 0.21376196 0.31817183
v -0.50956033 3.9342034e-2 6.3444842e-2
v -0.50956033 7.9419560e-2 6.3444842e-2
v -0.31891975 5.1008296e-2 -0.38156751
v -0.31891975 3.9342034e-2 -0.38156751
v 0.40279100 7.9419560e-2 6.3444842e-2
v 0.40279100 3.9342034e-2 6.3444842e-2
v 0.21215042 3.9342034e-2 -0.38156751
v 0.21215042 5.1008296e-2 -0.38156751
v 0.20131988 0.11051838 0.52548674
v 0.20131988 -3.2030685e-2 0.52548674
v 0.64715716 3.9342034e-2 0.74314411
v 0.64715716 7.9419560e-2 0.74314411
v -0.30808921 -3.2030685e-2 0.52548674
v -0.30808921 0.11051838 0.52548674
v -0.75392648 7.9419560e-2 0.74314411
v -0.75392648 3.9342034e-2 0.74314411
v -4.6224676e-2 0.20225420 0.39337537
v -5.3384668e-2 -3.2030685e-2 9.7866672e-2
v -4.6224676e-2 0.21376196 0.31817183
v -5.3384668e-2 0.14000674 -0.63453166
v -5.3384668e-2 9.0886967e-2 -0.41598933
v -5.3384668e-2 0.13686084 9.7866672e-2
v -5.3384668e-2 6.5377109e-2 -0.83725713
vt 5.1772391e-2 0.92437951
vt 5.5693138e-2 0.45521628
vt 0.12398394 0.77649503
vt 0.12542240 0.60428809
vt 0.16211995 0.71390479
vt 0.16234225 0.68841046
vt 0.16248158 0.66290929
vt 0.18693463 0.71412116
vt 0.18722386 0.68859002
vt 0.18730291 0.66304491
vt 0.25597437 0.42638942
vt 0.26023173 3.3309568e-2
vt 0.26476418 0.69156280
vt 0.26558350 0.75548780
vt 0.26597261 0.44953120
vt 0.26665159 0.62765993
vt 0.26833294 0.19841883
vt 0.27347620 3.1826117e-2
vt 0.27698184 0.84399733
vt 0.27952821 0.53935294
vt 0.28347065 0.46862325
vt 0.28436325 0.34115496
vt 0.30096080 0.48770563
vt 0.31541648 0.19314480
vt 0.32375669 0.49843187
vt 0.33136434 0.33589158
vt 0.37400096 0.38251292
vt 0.40851147 0.47553970
vt 0.41659994 0.42909538
vt 0.42429598 0.85795053
vt 0.42431102 0.87122619
vt 0.42520126 0.78228644
vt 0.42582952 0.95867973
vt 0.42669582 0.60353361
vt 0.42730625 0.27270759
vt 0.42778383 0.28489511
vt 0.42826141 0.29708263
vt 0.43637542 0.75699079
vt 0.43692764 0.69300197
vt 0.43744555 0.62901266
vt 0.45313312 0.95033142
vt 0.45313312 0.95419587
vt 0.51152435 0.69362597
vt 0.51159030 0.70987204
vt 0.51186220 0.67738323
vt 0.54922507 0.49999807
vt 0.55729750 0.45363612
vt 0.56842798 0.21618576
vt 0.57337333 0.34238817
vt 0.57847959 0.18149563
vt 0.58244277 0.70629170
vt 0.58254045 0.69422090
vt 0.58264501 0.68215011
vt 0.58610867 0.37618538
vt 0.61350035 0.95033142
vt 0.61350035 0.96360709
vt 0.66355489 0.85767944
vt 0.66356993 0.87095510
vt 0.67395157 0.76834966
vt 0.69649183 0.59646584
vt 0.71225753 0.51795611
vt 0.71452597 0.50492849
vt 0.72211839 0.60905394
vt 0.72599294 0.11858728
vt 0.72721069 0.57747134
vt 0.73809236 0.42735769
vt 0.73851210 0.20952087
vt 0.74098477 0.27262208
vt 0.74262747 0.78888881
vt 0.74345745 0.33572329
vt 0.80006061 0.65351280
vt 0.81547738 0.71284735
vt 0.82056968 0.74442995
vt 0.82392202 0.85749773
vt 0.82392639 0.86136218
vt 0.84619624 0.73184185
vt 0.85123506 0.86581510
vt 0.85275941 0.95033142
vt 0.85275941 0.96360709
vt 0.86873650 0.63297365
vt 0.88000394 0.18727577
vt 0.88625613 0.34682824
vt 0.95097433 3.7173068e-2
vt 0.96875465 0.49091715
vn -0.20205872 -0.93524729 0.29066266
vn 0.17530642 -0.95410645 0.24279322
vn -8.0040166e-2 0.99679012 -1.7411676e-3
vn 8.7826323e-2 0.99609541 -8.9701582e-3
vn -0.38061700 -0.86887358 -0.31652709
vn 0.55398493 -0.73028583 -0.39972903
vn -0.52031557 0.77572495 -0.35710294
vn 0.52031558 0.77572495 -0.35710294
vn 0.75439262 -0.17949569 -0.63140564
vn -0.78800198 0.26826908 -0.55415212
vn -0.20882741 0.96160397 -0.17807001
vn 0.20882741 0.96160397 -0.17807001
vn -0.58599395 0.64602398 0.48914631
vn 0.60952914 0.63385355 0.47613433
vn 0.25400339 0.95891545 -0.12634651
vn -0.24057598 0.96304576 -0.12110356
vn -0.64044525 -0.73052783 -0.23697883
vn -0.83870272 0.42260286 -0.34348883
vn -0.55698838 0.66034489 -0.50369492
vn -0.74899901 -0.35025257 -0.56242654
vn 0.83870271 0.42260286 -0.34348884
vn 0.64044525 -0.73052783 -0.23697883
vn 0.74899901 -0.35025257 -0.56242654
vn 0.55698838 0.66034489 -0.50369492
vn -0.63555577 0.35377032 0.68623278
vn -0.66249348 -0.65372771 0.36570817
vn 0.63920194 -0.52394813 0.56293804
vn 0.31778303 0.91858159 0.23499322
vn 0.66249349 -0.65372771 0.36570817
vn 0.63555577 0.35377032 0.68623277
vn -0.31778303 0.91858159 0.23499322
vn -0.63920193 -0.52394813 0.56293805
vn 0.0000000e+0 -0.63129118 0.77554590
vn 0.0000000e+0 -0.90011579 0.43565073
vn 0.0000000e+0 0.99910626 -4.2269199e-2
vn 4.5410341e-10 0.98808211 0.15392770
vn 1.1311997e-9 0.99990392 1.3862145e-2
vn -6.5344806e-5 0.96418074 -0.26524612
vn 0.0000000e+0 0.82487935 -0.56530882
g Cube1_Cube1_auv
usemtl Cube1_auv
s 1
f 1/26/1 13/15/13 3/22/3
f 1/70/1 20/54/20 5/49/5
f 1/70/1 29/82/29 17/66/17
f 1/26/1 33/21/33 13/15/13
f 1/26/1 34/27/34 33/21/33
f 2/67/2 23/50/23 22/64/22
f 2/29/2 26/47/26 4/28/4
f 3/14/3 19/32/19 18/19/18
f 3/22/3 29/24/29 1/26/1
f 3/22/3 30/17/30 29/24/29
f 3/14/3 31/1/31 30/3/30
f 3/14/3 37/39/37 7/38/7
f 3/14/3 38/13/38 37/39/37
f 4/28/4 14/23/14 2/29/2
f 4/28/4 15/25/15 14/23/14
f 4/16/4 24/34/24 8/40/8
f 4/28/4 26/47/26 25/46/25
f 4/16/4 28/2/28 21/20/21
f 4/16/4 38/13/38 15/10/15
f 5/49/5 2/67/2 34/68/34 1/70/1
f 5/49/5 6/48/6 2/67/2
f 5/49/5 9/35/9 6/48/6
f 5/49/5 10/37/10 39/36/39 9/35/9
f 5/72/5 20/76/20 7/73/7
f 6/65/6 9/80/9 8/63/8
f 6/48/6 23/50/23 2/67/2
f 7/73/7 10/59/10 5/72/5
f 7/73/7 11/69/11 10/59/10
f 7/38/7 19/32/19 3/14/3
f 7/33/7 20/41/20 19/42/19
f 7/38/7 36/43/36 11/44/11
f 7/38/7 37/39/37 36/43/36
f 8/63/8 23/60/23 6/65/6
f 8/77/8 24/75/24 23/74/23
f 8/40/8 37/39/37 4/16/4
f 9/80/9 12/71/12 8/63/8
f 9/53/9 39/52/39 12/45/12
f 11/44/11 39/52/39 10/51/10
f 12/45/12 36/43/36 8/40/8
f 13/15/13 16/11/16 3/22/3
f 13/5/13 35/9/35 16/8/16
f 14/23/14 33/21/33 2/29/2
f 15/10/15 35/9/35 14/7/14
f 15/10/15 38/13/38 35/9/35
f 16/8/16 38/13/38 3/14/3
f 17/66/17 20/54/20 1/70/1
f 17/55/17 32/78/32 18/56/18
f 18/56/18 20/41/20 17/55/17
f 18/19/18 31/1/31 3/14/3
f 18/56/18 32/78/32 31/79/31
f 19/42/19 20/41/20 18/56/18
f 21/20/21 24/34/24 4/16/4
f 21/58/21 27/30/27 22/57/22
f 21/58/21 28/31/28 27/30/27
f 22/57/22 23/74/23 21/58/21
f 22/64/22 26/81/26 2/67/2
f 22/64/22 27/83/27 26/81/26
f 23/74/23 24/75/24 21/58/21
f 25/4/25 28/2/28 4/16/4
f 26/47/26 27/62/27 25/46/25
f 27/62/27 28/61/28 25/46/25
f 29/82/29 32/84/32 17/66/17
f 30/17/30 32/18/32 29/24/29
f 31/12/31 32/18/32 30/17/30
f 33/6/33 14/7/14 35/9/35 13/5/13
f 33/21/33 34/27/34 2/29/2
f 35/9/35 38/13/38 16/8/16
f 36/43/36 12/45/12 39/52/39 11/44/11
f 36/43/36 37/39/37 8/40/8
f 37/39/37 38/13/38 4/16/4
